# xmcd
#
# Track frame offsets:
#	150
#	15381
#	32875
#	46421
#	62749
#	81347
#	97210
#	119563
#	136685
#	156148
#	172103
#	188165
#	203543
#	221115
#	239665
#	261628
#	280479
#	298378
#	313003
#	329854
#	344998
#
# Disc length: 4799 seconds
#
# Revision: 0
# Processed by: cddbd v1.5.2PL0 Copyright (c) Steve Scherf et al.
# Submitted via: EasyCDDAExtractor 10.2.0.1
#
DISCID=6312bd15
DTITLE=Various Artist - Country Hits 2007 v.2 - The Best Of New Country
DYEAR=2007
DGENRE=Country
TTITLE0=Sugarland - Settlin'
TTITLE1=Dierks Bentley - Every Mile A Memory
TTITLE2=Josh Turner - Me And God
TTITLE3=Faith Hill - The Lucky One
TTITLE4=Road Hammers - Girl On The Billboard
TTITLE5=The Wreckers - My Oh My
TTITLE6=Emerson Drive - Moments
TTITLE7=The Wilkinsons - Fast Car
TTITLE8=Keith Urban - Tonight I Wanna Cry
TTITLE9=Gary Allan - A Feelin' Like That
TTITLE10=Jessie Farrell - Let's Talk About Love
TTITLE11=Shane Yellowbird - They're All About You
TTITLE12=Carolyn Dawn Johnson - Taking Back My Brave
TTITLE13=Joe Nichols - I'll Wait For You
TTITLE14=Vince Gill (feat. Sheryl Crow) - What You Give Away
TTITLE15=George Strait - The Seashores Of Old Mexico
TTITLE16=Patricia Conroy - Save Your Breath
TTITLE17=Amanda Wilkinson - Walk Away
TTITLE18=Doc Walker - Maria
TTITLE19=George Canyon - Drinkin' Thinkin'
TTITLE20=Josh Gracin - Favorite State Of Mind
EXTD=
EXTT0=
EXTT1=
EXTT2=
EXTT3=
EXTT4=
EXTT5=
EXTT6=
EXTT7=
EXTT8=
EXTT9=
EXTT10=
EXTT11=
EXTT12=
EXTT13=
EXTT14=
EXTT15=
EXTT16=
EXTT17=
EXTT18=
EXTT19=
EXTT20=
PLAYORDER=
